<svg xmlns="http://www.w3.org/2000/svg" xmlns:xlink="http://www.w3.org/1999/xlink" width="800" height="800" viewBox="0 0 800 800"><rect width="100%" height="100%" fill="#DDDDDD"/><path d="M167.24 375.66L167.24 415.43L159.81 415.43L159.81 375.66L167.24 375.66ZM181.84 415.43L175.05 415.43L175.05 387.21L179.20 387.21Q180.52 387.21 180.93 388.45L180.93 388.45L181.37 390.54Q182.12 389.72 182.93 389.03Q183.74 388.34 184.66 387.85Q185.58 387.35 186.64 387.06Q187.70 386.77 188.96 386.77L188.96 386.77Q191.63 386.77 193.35 388.22Q195.07 389.66 195.92 392.05L195.92 392.05Q196.58 390.65 197.57 389.65Q198.56 388.64 199.74 388.01Q200.93 387.38 202.26 387.07Q203.59 386.77 204.94 386.77L204.94 386.77Q207.28 386.77 209.09 387.49Q210.91 388.20 212.15 389.58Q213.38 390.95 214.03 392.93Q214.68 394.91 214.68 397.47L214.68 397.47L214.68 415.43L207.88 415.43L207.88 397.47Q207.88 394.78 206.70 393.41Q205.52 392.05 203.24 392.05L203.24 392.05Q202.19 392.05 201.30 392.41Q200.40 392.77 199.73 393.44Q199.06 394.12 198.67 395.13Q198.29 396.15 198.29 397.47L198.29 397.47L198.29 415.43L191.47 415.43L191.47 397.47Q191.47 394.64 190.33 393.35Q189.18 392.05 186.98 392.05L186.98 392.05Q185.50 392.05 184.22 392.78Q182.94 393.51 181.84 394.78L181.84 394.78L181.84 415.43ZM236.02 408.14L236.02 403.38Q233.07 403.52 231.07 403.89Q229.06 404.26 227.85 404.84Q226.64 405.42 226.12 406.19Q225.59 406.96 225.59 407.87L225.59 407.87Q225.59 409.65 226.65 410.42Q227.71 411.19 229.42 411.19L229.42 411.19Q231.51 411.19 233.03 410.44Q234.56 409.68 236.02 408.14L236.02 408.14ZM221.66 393.32L220.45 391.14Q225.32 386.69 232.17 386.69L232.17 386.69Q234.64 386.69 236.59 387.50Q238.55 388.31 239.89 389.76Q241.24 391.20 241.94 393.21Q242.64 395.22 242.64 397.61L242.64 397.61L242.64 415.43L239.56 415.43Q238.60 415.43 238.08 415.14Q237.56 414.85 237.25 413.97L237.25 413.97L236.65 411.94Q235.58 412.90 234.56 413.63Q233.54 414.36 232.44 414.85Q231.34 415.35 230.09 415.61Q228.84 415.87 227.33 415.87L227.33 415.87Q225.54 415.87 224.03 415.39Q222.51 414.91 221.41 413.94Q220.31 412.98 219.71 411.55Q219.10 410.12 219.10 408.22L219.10 408.22Q219.10 407.15 219.46 406.09Q219.82 405.03 220.63 404.07Q221.44 403.11 222.73 402.25Q224.03 401.40 225.91 400.77Q227.79 400.14 230.30 399.74Q232.80 399.34 236.02 399.26L236.02 399.26L236.02 397.61Q236.02 394.78 234.81 393.41Q233.60 392.05 231.31 392.05L231.31 392.05Q229.66 392.05 228.58 392.44Q227.49 392.82 226.67 393.30Q225.84 393.79 225.17 394.17Q224.49 394.56 223.67 394.56L223.67 394.56Q222.95 394.56 222.46 394.18Q221.96 393.81 221.66 393.32L221.66 393.32ZM259.34 400.63L259.34 400.63Q260.60 400.63 261.54 400.29Q262.47 399.94 263.09 399.34Q263.71 398.74 264.03 397.88Q264.34 397.03 264.34 396.01L264.34 396.01Q264.34 393.92 263.09 392.70Q261.84 391.48 259.34 391.48L259.34 391.48Q256.83 391.48 255.58 392.70Q254.33 393.92 254.33 396.01L254.33 396.01Q254.33 397.00 254.65 397.86Q254.96 398.71 255.58 399.33Q256.20 399.94 257.15 400.29Q258.10 400.63 259.34 400.63ZM267.01 416.69L267.01 416.69Q267.01 415.87 266.51 415.35Q266.02 414.82 265.17 414.53Q264.31 414.25 263.17 414.11Q262.03 413.97 260.75 413.90Q259.47 413.83 258.11 413.78Q256.75 413.72 255.46 413.56L255.46 413.56Q254.33 414.19 253.63 415.04Q252.93 415.89 252.93 417.02L252.93 417.02Q252.93 417.76 253.30 418.41Q253.67 419.06 254.48 419.53Q255.29 419.99 256.59 420.25Q257.88 420.51 259.75 420.51L259.75 420.51Q261.65 420.51 263.02 420.23Q264.40 419.94 265.29 419.43Q266.18 418.92 266.60 418.22Q267.01 417.52 267.01 416.69ZM265.66 388.18L273.77 388.18L273.77 390.70Q273.77 391.92 272.32 392.19L272.32 392.19L269.79 392.66Q270.36 394.12 270.36 395.85L270.36 395.85Q270.36 397.94 269.53 399.63Q268.69 401.32 267.20 402.50Q265.72 403.69 263.70 404.33Q261.67 404.98 259.34 404.98L259.34 404.98Q258.51 404.98 257.74 404.89Q256.97 404.81 256.23 404.68L256.23 404.68Q254.91 405.47 254.91 406.46L254.91 406.46Q254.91 407.31 255.69 407.71Q256.48 408.11 257.77 408.28Q259.06 408.44 260.71 408.48Q262.36 408.53 264.09 408.66Q265.83 408.80 267.48 409.14Q269.13 409.49 270.42 410.23Q271.71 410.97 272.50 412.25Q273.28 413.53 273.28 415.54L273.28 415.54Q273.28 417.41 272.36 419.17Q271.44 420.93 269.69 422.30Q267.94 423.68 265.40 424.52Q262.86 425.36 259.61 425.36L259.61 425.36Q256.42 425.36 254.06 424.74Q251.69 424.12 250.12 423.09Q248.56 422.06 247.79 420.71Q247.02 419.36 247.02 417.90L247.02 417.90Q247.02 415.92 248.21 414.59Q249.41 413.25 251.50 412.46L251.50 412.46Q250.37 411.88 249.71 410.92Q249.05 409.95 249.05 408.39L249.05 408.39Q249.05 407.75 249.29 407.08Q249.52 406.41 249.97 405.75Q250.43 405.09 251.11 404.50Q251.80 403.91 252.74 403.44L252.74 403.44Q250.59 402.28 249.37 400.36Q248.14 398.43 248.14 395.85L248.14 395.85Q248.14 393.76 248.98 392.07Q249.82 390.38 251.32 389.18Q252.82 387.98 254.87 387.35Q256.92 386.72 259.34 386.72L259.34 386.72Q261.15 386.72 262.75 387.09Q264.34 387.46 265.66 388.18L265.66 388.18ZM283.43 398.07L296.24 398.07Q296.24 396.75 295.87 395.59Q295.50 394.42 294.76 393.54Q294.01 392.66 292.87 392.15Q291.73 391.64 290.22 391.64L290.22 391.64Q287.28 391.64 285.59 393.32Q283.89 395.00 283.43 398.07L283.43 398.07ZM300.75 402.17L283.29 402.17Q283.45 404.35 284.06 405.93Q284.66 407.51 285.65 408.54Q286.64 409.57 288.01 410.08Q289.37 410.59 291.02 410.59L291.02 410.59Q292.67 410.59 293.86 410.20Q295.06 409.82 295.95 409.35Q296.85 408.88 297.52 408.50Q298.19 408.11 298.83 408.11L298.83 408.11Q299.68 408.11 300.09 408.75L300.09 408.75L302.04 411.22Q300.92 412.54 299.51 413.43Q298.11 414.33 296.59 414.86Q295.06 415.40 293.48 415.62Q291.90 415.84 290.41 415.84L290.41 415.84Q287.47 415.84 284.94 414.86Q282.41 413.89 280.54 411.98Q278.67 410.06 277.60 407.25Q276.52 404.43 276.52 400.72L276.52 400.72Q276.52 397.83 277.46 395.28Q278.39 392.74 280.14 390.86Q281.89 388.97 284.40 387.87Q286.92 386.77 290.08 386.77L290.08 386.77Q292.75 386.77 295.00 387.63Q297.26 388.48 298.88 390.11Q300.50 391.75 301.43 394.13Q302.35 396.51 302.35 399.56L302.35 399.56Q302.35 401.10 302.02 401.64Q301.69 402.17 300.75 402.17L300.75 402.17ZM349.18 406.05L349.18 406.05Q349.78 406.05 350.25 406.52L350.25 406.52L353.17 409.68Q350.75 412.68 347.21 414.27Q343.68 415.87 338.73 415.87L338.73 415.87Q334.30 415.87 330.77 414.36Q327.23 412.84 324.73 410.15Q322.23 407.45 320.90 403.71Q319.56 399.97 319.56 395.55L319.56 395.55Q319.56 391.06 320.99 387.34Q322.42 383.61 325.02 380.92Q327.62 378.22 331.22 376.72Q334.82 375.22 339.20 375.22L339.20 375.22Q343.54 375.22 346.91 376.65Q350.28 378.08 352.64 380.39L352.64 380.39L350.17 383.83Q349.95 384.16 349.61 384.41Q349.26 384.66 348.66 384.66L348.66 384.66Q348.24 384.66 347.80 384.42Q347.36 384.19 346.84 383.84Q346.32 383.50 345.63 383.09Q344.94 382.68 344.04 382.33Q343.13 381.99 341.93 381.75Q340.74 381.52 339.17 381.52L339.17 381.52Q336.50 381.52 334.29 382.47Q332.07 383.42 330.48 385.22Q328.88 387.02 328.00 389.62Q327.12 392.22 327.12 395.55L327.12 395.55Q327.12 398.90 328.07 401.51Q329.02 404.13 330.64 405.91Q332.27 407.70 334.47 408.65Q336.67 409.60 339.20 409.60L339.20 409.60Q340.71 409.60 341.93 409.43Q343.16 409.27 344.19 408.91Q345.22 408.55 346.14 407.99Q347.06 407.43 347.97 406.60L347.97 406.60Q348.24 406.35 348.55 406.20Q348.85 406.05 349.18 406.05ZM369.67 386.77L369.67 386.77Q372.80 386.77 375.37 387.79Q377.94 388.81 379.77 390.68Q381.60 392.55 382.59 395.24Q383.58 397.94 383.58 401.26L383.58 401.26Q383.58 404.62 382.59 407.31Q381.60 410.01 379.77 411.91Q377.94 413.81 375.37 414.82Q372.80 415.84 369.67 415.84L369.67 415.84Q366.50 415.84 363.92 414.82Q361.33 413.81 359.51 411.91Q357.68 410.01 356.67 407.31Q355.67 404.62 355.67 401.26L355.67 401.26Q355.67 397.94 356.67 395.24Q357.68 392.55 359.51 390.68Q361.33 388.81 363.92 387.79Q366.50 386.77 369.67 386.77ZM369.67 410.62L369.67 410.62Q373.19 410.62 374.88 408.25Q376.57 405.88 376.57 401.32L376.57 401.32Q376.57 396.75 374.88 394.36Q373.19 391.97 369.67 391.97L369.67 391.97Q366.09 391.97 364.37 394.38Q362.65 396.78 362.65 401.32L362.65 401.32Q362.65 405.86 364.37 408.24Q366.09 410.62 369.67 410.62ZM395.57 415.43L388.78 415.43L388.78 387.21L392.93 387.21Q394.25 387.21 394.66 388.45L394.66 388.45L395.10 390.54Q395.85 389.72 396.66 389.03Q397.47 388.34 398.39 387.85Q399.31 387.35 400.37 387.06Q401.43 386.77 402.69 386.77L402.69 386.77Q405.36 386.77 407.08 388.22Q408.80 389.66 409.65 392.05L409.65 392.05Q410.31 390.65 411.30 389.65Q412.29 388.64 413.47 388.01Q414.66 387.38 415.99 387.07Q417.32 386.77 418.67 386.77L418.67 386.77Q421.01 386.77 422.82 387.49Q424.64 388.20 425.88 389.58Q427.11 390.95 427.76 392.93Q428.41 394.91 428.41 397.47L428.41 397.47L428.41 415.43L421.61 415.43L421.61 397.47Q421.61 394.78 420.43 393.41Q419.25 392.05 416.97 392.05L416.97 392.05Q415.92 392.05 415.03 392.41Q414.13 392.77 413.46 393.44Q412.79 394.12 412.40 395.13Q412.02 396.15 412.02 397.47L412.02 397.47L412.02 415.43L405.20 415.43L405.20 397.47Q405.20 394.64 404.06 393.35Q402.91 392.05 400.71 392.05L400.71 392.05Q399.23 392.05 397.95 392.78Q396.67 393.51 395.57 394.78L395.57 394.78L395.57 415.43ZM435.06 387.21L441.88 387.21L441.88 415.43L435.06 415.43L435.06 387.21ZM442.82 378.99L442.82 378.99Q442.82 379.87 442.46 380.64Q442.10 381.41 441.51 381.99Q440.92 382.56 440.12 382.91Q439.32 383.25 438.42 383.25L438.42 383.25Q437.54 383.25 436.75 382.91Q435.97 382.56 435.39 381.99Q434.81 381.41 434.47 380.64Q434.13 379.87 434.13 378.99L434.13 378.99Q434.13 378.08 434.47 377.29Q434.81 376.49 435.39 375.91Q435.97 375.33 436.75 374.99Q437.54 374.64 438.42 374.64L438.42 374.64Q439.32 374.64 440.12 374.99Q440.92 375.33 441.51 375.91Q442.10 376.49 442.46 377.29Q442.82 378.08 442.82 378.99ZM454.70 388.45L455.16 390.68Q456.02 389.82 456.97 389.10Q457.91 388.37 458.97 387.86Q460.03 387.35 461.24 387.06Q462.45 386.77 463.88 386.77L463.88 386.77Q466.19 386.77 467.98 387.56Q469.77 388.34 470.96 389.76Q472.16 391.17 472.78 393.14Q473.40 395.11 473.40 397.47L473.40 397.47L473.40 415.43L466.60 415.43L466.60 397.47Q466.60 394.88 465.42 393.47Q464.24 392.05 461.82 392.05L461.82 392.05Q460.06 392.05 458.52 392.85Q456.98 393.65 455.60 395.02L455.60 395.02L455.60 415.43L448.81 415.43L448.81 387.21L452.96 387.21Q454.28 387.21 454.70 388.45L454.70 388.45ZM490.14 400.63L490.14 400.63Q491.41 400.63 492.34 400.29Q493.28 399.94 493.90 399.34Q494.52 398.74 494.83 397.88Q495.15 397.03 495.15 396.01L495.15 396.01Q495.15 393.92 493.90 392.70Q492.65 391.48 490.14 391.48L490.14 391.48Q487.64 391.48 486.39 392.70Q485.14 393.92 485.14 396.01L485.14 396.01Q485.14 397.00 485.46 397.86Q485.77 398.71 486.39 399.33Q487.01 399.94 487.96 400.29Q488.91 400.63 490.14 400.63ZM497.82 416.69L497.82 416.69Q497.82 415.87 497.32 415.35Q496.83 414.82 495.97 414.53Q495.12 414.25 493.98 414.11Q492.84 413.97 491.56 413.90Q490.28 413.83 488.92 413.78Q487.56 413.72 486.27 413.56L486.27 413.56Q485.14 414.19 484.44 415.04Q483.74 415.89 483.74 417.02L483.74 417.02Q483.74 417.76 484.11 418.41Q484.48 419.06 485.29 419.53Q486.10 419.99 487.39 420.25Q488.69 420.51 490.56 420.51L490.56 420.51Q492.45 420.51 493.83 420.23Q495.20 419.94 496.10 419.43Q496.99 418.92 497.40 418.22Q497.82 417.52 497.82 416.69ZM496.47 388.18L504.58 388.18L504.58 390.70Q504.58 391.92 503.12 392.19L503.12 392.19L500.59 392.66Q501.17 394.12 501.17 395.85L501.17 395.85Q501.17 397.94 500.33 399.63Q499.49 401.32 498.01 402.50Q496.52 403.69 494.50 404.33Q492.48 404.98 490.14 404.98L490.14 404.98Q489.32 404.98 488.55 404.89Q487.78 404.81 487.04 404.68L487.04 404.68Q485.72 405.47 485.72 406.46L485.72 406.46Q485.72 407.31 486.50 407.71Q487.28 408.11 488.58 408.28Q489.87 408.44 491.52 408.48Q493.17 408.53 494.90 408.66Q496.63 408.80 498.28 409.14Q499.93 409.49 501.23 410.23Q502.52 410.97 503.30 412.25Q504.09 413.53 504.09 415.54L504.09 415.54Q504.09 417.41 503.17 419.17Q502.24 420.93 500.50 422.30Q498.75 423.68 496.21 424.52Q493.66 425.36 490.42 425.36L490.42 425.36Q487.23 425.36 484.86 424.74Q482.50 424.12 480.93 423.09Q479.36 422.06 478.59 420.71Q477.82 419.36 477.82 417.90L477.82 417.90Q477.82 415.92 479.02 414.59Q480.22 413.25 482.31 412.46L482.31 412.46Q481.18 411.88 480.52 410.92Q479.86 409.95 479.86 408.39L479.86 408.39Q479.86 407.75 480.09 407.08Q480.33 406.41 480.78 405.75Q481.23 405.09 481.92 404.50Q482.61 403.91 483.54 403.44L483.54 403.44Q481.40 402.28 480.18 400.36Q478.95 398.43 478.95 395.85L478.95 395.85Q478.95 393.76 479.79 392.07Q480.63 390.38 482.13 389.18Q483.63 387.98 485.68 387.35Q487.72 386.72 490.14 386.72L490.14 386.72Q491.96 386.72 493.55 387.09Q495.15 387.46 496.47 388.18L496.47 388.18ZM546.33 379.40L544.48 382.89Q544.15 383.47 543.78 383.73Q543.41 384.00 542.86 384.00L542.86 384.00Q542.28 384.00 541.61 383.57Q540.94 383.14 540.00 382.62Q539.07 382.10 537.82 381.67Q536.56 381.25 534.86 381.25L534.86 381.25Q533.32 381.25 532.16 381.62Q531.01 381.99 530.23 382.65Q529.44 383.31 529.06 384.23Q528.67 385.15 528.67 386.25L528.67 386.25Q528.67 387.65 529.46 388.59Q530.24 389.52 531.53 390.18Q532.82 390.84 534.47 391.37Q536.12 391.89 537.86 392.48Q539.59 393.07 541.24 393.85Q542.89 394.64 544.18 395.83Q545.47 397.03 546.26 398.76Q547.04 400.50 547.04 402.97L547.04 402.97Q547.04 405.67 546.12 408.02Q545.20 410.37 543.43 412.11Q541.65 413.86 539.09 414.86Q536.54 415.87 533.24 415.87L533.24 415.87Q531.34 415.87 529.50 415.50Q527.65 415.13 525.96 414.44Q524.27 413.75 522.79 412.79Q521.30 411.82 520.15 410.64L520.15 410.64L522.32 407.10Q522.59 406.71 523.03 406.45Q523.47 406.19 523.97 406.19L523.97 406.19Q524.66 406.19 525.45 406.75Q526.25 407.31 527.35 408.00Q528.45 408.69 529.92 409.25Q531.39 409.82 533.46 409.82L533.46 409.82Q536.62 409.82 538.35 408.32Q540.08 406.82 540.08 404.01L540.08 404.01Q540.08 402.45 539.30 401.46Q538.52 400.47 537.22 399.79Q535.93 399.12 534.28 398.65Q532.63 398.19 530.93 397.63Q529.22 397.09 527.57 396.31Q525.92 395.55 524.63 394.31Q523.34 393.07 522.55 391.21Q521.77 389.36 521.77 386.63L521.77 386.63Q521.77 384.46 522.64 382.40Q523.50 380.34 525.15 378.74Q526.80 377.15 529.22 376.19Q531.64 375.22 534.78 375.22L534.78 375.22Q538.30 375.22 541.27 376.32Q544.24 377.42 546.33 379.40L546.33 379.40ZM564.89 386.77L564.89 386.77Q568.02 386.77 570.60 387.79Q573.17 388.81 575.00 390.68Q576.82 392.55 577.81 395.24Q578.80 397.94 578.80 401.26L578.80 401.26Q578.80 404.62 577.81 407.31Q576.82 410.01 575.00 411.91Q573.17 413.81 570.60 414.82Q568.02 415.84 564.89 415.84L564.89 415.84Q561.73 415.84 559.14 414.82Q556.56 413.81 554.73 411.91Q552.90 410.01 551.90 407.31Q550.89 404.62 550.89 401.26L550.89 401.26Q550.89 397.94 551.90 395.24Q552.90 392.55 554.73 390.68Q556.56 388.81 559.14 387.79Q561.73 386.77 564.89 386.77ZM564.89 410.62L564.89 410.62Q568.41 410.62 570.10 408.25Q571.79 405.88 571.79 401.32L571.79 401.32Q571.79 396.75 570.10 394.36Q568.41 391.97 564.89 391.97L564.89 391.97Q561.31 391.97 559.60 394.38Q557.88 396.78 557.88 401.32L557.88 401.32Q557.88 405.86 559.60 408.24Q561.31 410.62 564.89 410.62ZM596.49 386.77L596.49 386.77Q599.62 386.77 602.19 387.79Q604.76 388.81 606.59 390.68Q608.42 392.55 609.41 395.24Q610.40 397.94 610.40 401.26L610.40 401.26Q610.40 404.62 609.41 407.31Q608.42 410.01 606.59 411.91Q604.76 413.81 602.19 414.82Q599.62 415.84 596.49 415.84L596.49 415.84Q593.32 415.84 590.74 414.82Q588.15 413.81 586.33 411.91Q584.50 410.01 583.49 407.31Q582.49 404.62 582.49 401.26L582.49 401.26Q582.49 397.94 583.49 395.24Q584.50 392.55 586.33 390.68Q588.15 388.81 590.74 387.79Q593.32 386.77 596.49 386.77ZM596.49 410.62L596.49 410.62Q600.01 410.62 601.70 408.25Q603.39 405.88 603.39 401.32L603.39 401.32Q603.39 396.75 601.70 394.36Q600.01 391.97 596.49 391.97L596.49 391.97Q592.91 391.97 591.19 394.38Q589.47 396.78 589.47 401.32L589.47 401.32Q589.47 405.86 591.19 408.24Q592.91 410.62 596.49 410.62ZM621.48 388.45L621.95 390.68Q622.80 389.82 623.75 389.10Q624.70 388.37 625.76 387.86Q626.82 387.35 628.03 387.06Q629.24 386.77 630.67 386.77L630.67 386.77Q632.98 386.77 634.77 387.56Q636.55 388.34 637.75 389.76Q638.95 391.17 639.57 393.14Q640.18 395.11 640.18 397.47L640.18 397.47L640.18 415.43L633.39 415.43L633.39 397.47Q633.39 394.88 632.21 393.47Q631.03 392.05 628.61 392.05L628.61 392.05Q626.85 392.05 625.31 392.85Q623.77 393.65 622.39 395.02L622.39 395.02L622.39 415.43L615.60 415.43L615.60 387.21L619.75 387.21Q621.07 387.21 621.48 388.45L621.48 388.45Z" fill="#999999"/></svg>