<svg xmlns="http://www.w3.org/2000/svg" width="604.257" height="245.254" viewBox="0 0 604.257 245.254">
  <g id="Group_2" data-name="Group 2" transform="translate(-1113 -780)">
    <path id="Path_3" data-name="Path 3" d="M6.081-17.266V-9.75h6.271v1.27H6.081v5.522a2.341,2.341,0,0,0,.171.978,1.365,1.365,0,0,0,.457.565,1.64,1.64,0,0,0,.679.26,5.179,5.179,0,0,0,.825.063h.863V0H.99V-1.092h.33a5.611,5.611,0,0,0,.819-.057,1.8,1.8,0,0,0,.679-.235,1.232,1.232,0,0,0,.463-.527,2.1,2.1,0,0,0,.171-.92V-15.7a2.1,2.1,0,0,0-.171-.92,1.321,1.321,0,0,0-.463-.54,1.674,1.674,0,0,0-.679-.248,5.611,5.611,0,0,0-.819-.057H.99v-1.092h13.1l.127,4.545H12.873l-.127-1.117a3.278,3.278,0,0,0-.2-.832,1.949,1.949,0,0,0-.438-.673,2.088,2.088,0,0,0-.717-.457,2.822,2.822,0,0,0-1.041-.171ZM16.009-1.092a5.145,5.145,0,0,0,.832-.063,1.635,1.635,0,0,0,.673-.26,1.365,1.365,0,0,0,.457-.565,2.341,2.341,0,0,0,.171-.978V-16.9a2.1,2.1,0,0,0-.171-.92,1.321,1.321,0,0,0-.463-.54,1.674,1.674,0,0,0-.679-.248,5.611,5.611,0,0,0-.819-.057h-.33v-1.092h4.913v16.8a2.421,2.421,0,0,0,.165.978,1.3,1.3,0,0,0,.457.565,1.687,1.687,0,0,0,.679.26,5.145,5.145,0,0,0,.832.063h.33V0H15.679V-1.092ZM36.969-7q0,3.669-1.555,5.459A5.7,5.7,0,0,1,30.862.254,6.789,6.789,0,0,1,28.336-.19a4.841,4.841,0,0,1-1.9-1.346A6.11,6.11,0,0,1,25.245-3.8,11.075,11.075,0,0,1,24.832-7q0-3.644,1.542-5.421a5.716,5.716,0,0,1,4.564-1.777,6.877,6.877,0,0,1,2.526.438,4.811,4.811,0,0,1,1.9,1.333,6.055,6.055,0,0,1,1.193,2.247A10.943,10.943,0,0,1,36.969-7ZM27.346-7a15.163,15.163,0,0,0,.19,2.552A5.637,5.637,0,0,0,28.152-2.6a2.908,2.908,0,0,0,1.1,1.124,3.342,3.342,0,0,0,1.657.381,3.306,3.306,0,0,0,1.65-.381A2.878,2.878,0,0,0,33.655-2.6a5.641,5.641,0,0,0,.6-1.847A15.675,15.675,0,0,0,34.442-7a14.934,14.934,0,0,0-.19-2.539,5.58,5.58,0,0,0-.609-1.822,2.8,2.8,0,0,0-1.1-1.1,3.436,3.436,0,0,0-1.657-.368,3.4,3.4,0,0,0-1.65.368,2.808,2.808,0,0,0-1.092,1.1,5.58,5.58,0,0,0-.609,1.822A14.934,14.934,0,0,0,27.346-7ZM46.77,0h-7.5V-1.092h.076a5.145,5.145,0,0,0,.832-.063,1.635,1.635,0,0,0,.673-.26A1.365,1.365,0,0,0,41.3-1.98a2.341,2.341,0,0,0,.171-.978V-11.07a2.1,2.1,0,0,0-.171-.92,1.321,1.321,0,0,0-.463-.54,1.744,1.744,0,0,0-.679-.254,5.06,5.06,0,0,0-.819-.063h-.076v-1.092h4l.5,2.577h.127q.254-.584.521-1.1a3.622,3.622,0,0,1,.654-.9,2.737,2.737,0,0,1,.958-.609,3.99,3.99,0,0,1,1.435-.222,3.649,3.649,0,0,1,2.114.5,1.617,1.617,0,0,1,.692,1.4,2.049,2.049,0,0,1-.133.749,1.458,1.458,0,0,1-.425.59,2.014,2.014,0,0,1-.749.381,4.038,4.038,0,0,1-1.117.133,3,3,0,0,0-.3-1.555,1.167,1.167,0,0,0-1.066-.476,1.445,1.445,0,0,0-.863.273,2.562,2.562,0,0,0-.667.724,4.772,4.772,0,0,0-.482,1.035,9.429,9.429,0,0,0-.317,1.2,11.216,11.216,0,0,0-.171,1.225q-.051.609-.051,1.1v4.088a2.1,2.1,0,0,0,.171.92,1.232,1.232,0,0,0,.463.527,1.8,1.8,0,0,0,.679.235,5.611,5.611,0,0,0,.819.057h.724Zm7.186-3.771a2.752,2.752,0,0,0,.514,1.822,1.98,1.98,0,0,0,1.593.6A3.849,3.849,0,0,0,57.491-1.6a3.044,3.044,0,0,0,1.092-.724,3.171,3.171,0,0,0,.692-1.143,4.415,4.415,0,0,0,.241-1.5V-7.071L57.853-7a7.8,7.8,0,0,0-1.847.273,3.18,3.18,0,0,0-1.2.622,2.23,2.23,0,0,0-.654.984A4.211,4.211,0,0,0,53.955-3.771ZM57.1-12.9a2.971,2.971,0,0,0-1.212.209,1.7,1.7,0,0,0-.724.59,2.246,2.246,0,0,0-.349.9,6.724,6.724,0,0,0-.089,1.13,3.023,3.023,0,0,1-1.644-.368,1.4,1.4,0,0,1-.565-1.27,1.8,1.8,0,0,1,.368-1.143,2.7,2.7,0,0,1,1.009-.768,5.732,5.732,0,0,1,1.492-.438,11.21,11.21,0,0,1,1.815-.14,8.2,8.2,0,0,1,2.082.235,3.548,3.548,0,0,1,1.485.768,3.257,3.257,0,0,1,.9,1.39,6.44,6.44,0,0,1,.3,2.1v6.741a3.8,3.8,0,0,0,.089.9,1.339,1.339,0,0,0,.279.571,1.026,1.026,0,0,0,.5.3,2.726,2.726,0,0,0,.743.089h.076V0H60.138l-.406-2.234h-.216q-.406.546-.787,1a4.584,4.584,0,0,1-.838.787A3.641,3.641,0,0,1,56.856.07a4.61,4.61,0,0,1-1.39.184A5.049,5.049,0,0,1,53.86.006a3.381,3.381,0,0,1-1.282-.762,3.53,3.53,0,0,1-.844-1.295,5.073,5.073,0,0,1-.3-1.847A3.461,3.461,0,0,1,52.9-6.97a8.443,8.443,0,0,1,4.456-1.092l2.158-.076V-9.7a10.1,10.1,0,0,0-.076-1.289A2.613,2.613,0,0,0,59.109-12a1.7,1.7,0,0,0-.73-.66A2.91,2.91,0,0,0,57.1-12.9ZM65.444-1.092a5.145,5.145,0,0,0,.832-.063,1.635,1.635,0,0,0,.673-.26,1.365,1.365,0,0,0,.457-.565,2.341,2.341,0,0,0,.171-.978V-16.9a2.1,2.1,0,0,0-.171-.92,1.321,1.321,0,0,0-.463-.54,1.674,1.674,0,0,0-.679-.248,5.611,5.611,0,0,0-.819-.057h-.33v-1.092h4.913v16.8a2.421,2.421,0,0,0,.165.978,1.3,1.3,0,0,0,.457.565,1.687,1.687,0,0,0,.679.26,5.145,5.145,0,0,0,.832.063h.33V0H65.114V-1.092ZM89.413-18.827a10.624,10.624,0,0,1,2.317.222,5.541,5.541,0,0,1,1.638.616,2.8,2.8,0,0,1,.978.927,2.186,2.186,0,0,1,.324,1.155,1.64,1.64,0,0,1-.171.755,1.672,1.672,0,0,1-.476.571,2.243,2.243,0,0,1-.717.362,3.03,3.03,0,0,1-.9.127A4.673,4.673,0,0,0,92.25-15.3a3.049,3.049,0,0,0-.521-1.073,2.734,2.734,0,0,0-.939-.774,3.089,3.089,0,0,0-1.428-.3,5.327,5.327,0,0,0-2.5.54,4.329,4.329,0,0,0-1.676,1.574,7.426,7.426,0,0,0-.939,2.552,18.5,18.5,0,0,0-.292,3.472,15.49,15.49,0,0,0,.3,3.187,7.417,7.417,0,0,0,.965,2.482,4.7,4.7,0,0,0,1.682,1.606,4.961,4.961,0,0,0,2.457.571,6.913,6.913,0,0,0,1.682-.184,5.484,5.484,0,0,0,1.289-.489,4.741,4.741,0,0,0,.984-.7,6.882,6.882,0,0,0,.755-.832,1.1,1.1,0,0,1,.355.381,1.26,1.26,0,0,1,.14.635,1.84,1.84,0,0,1-.336,1.009,3.155,3.155,0,0,1-1.022.933,6.443,6.443,0,0,1-1.739.692,10.065,10.065,0,0,1-2.5.273,8.013,8.013,0,0,1-3.415-.686,6.732,6.732,0,0,1-2.469-1.942A8.653,8.653,0,0,1,81.58-5.4a14.114,14.114,0,0,1-.508-3.91,13.213,13.213,0,0,1,.533-3.859,8.5,8.5,0,0,1,1.581-3.009,7.129,7.129,0,0,1,2.609-1.955A8.789,8.789,0,0,1,89.413-18.827ZM109.116-7q0,3.669-1.555,5.459A5.7,5.7,0,0,1,103.01.254a6.789,6.789,0,0,1-2.526-.444,4.841,4.841,0,0,1-1.9-1.346A6.11,6.11,0,0,1,97.392-3.8,11.075,11.075,0,0,1,96.979-7q0-3.644,1.542-5.421a5.716,5.716,0,0,1,4.564-1.777,6.877,6.877,0,0,1,2.526.438,4.811,4.811,0,0,1,1.9,1.333,6.055,6.055,0,0,1,1.193,2.247A10.943,10.943,0,0,1,109.116-7ZM99.493-7a15.163,15.163,0,0,0,.19,2.552A5.637,5.637,0,0,0,100.3-2.6a2.908,2.908,0,0,0,1.1,1.124,3.342,3.342,0,0,0,1.657.381,3.306,3.306,0,0,0,1.65-.381A2.878,2.878,0,0,0,105.8-2.6a5.641,5.641,0,0,0,.6-1.847A15.675,15.675,0,0,0,106.59-7a14.934,14.934,0,0,0-.19-2.539,5.58,5.58,0,0,0-.609-1.822,2.8,2.8,0,0,0-1.1-1.1,3.436,3.436,0,0,0-1.657-.368,3.4,3.4,0,0,0-1.65.368,2.808,2.808,0,0,0-1.092,1.1,5.58,5.58,0,0,0-.609,1.822A14.934,14.934,0,0,0,99.493-7Zm13.14,5.408a2.413,2.413,0,0,1,.127-.844,1.372,1.372,0,0,1,.349-.54,1.318,1.318,0,0,1,.521-.292,2.236,2.236,0,0,1,.641-.089,2.19,2.19,0,0,1,.628.089,1.318,1.318,0,0,1,.521.292,1.43,1.43,0,0,1,.355.54,2.309,2.309,0,0,1,.133.844,2.32,2.32,0,0,1-.133.838,1.423,1.423,0,0,1-.355.546,1.318,1.318,0,0,1-.521.292,2.19,2.19,0,0,1-.628.089,2.236,2.236,0,0,1-.641-.089,1.318,1.318,0,0,1-.521-.292,1.367,1.367,0,0,1-.349-.546A2.425,2.425,0,0,1,112.633-1.587Z" transform="translate(1356 1025)" fill="#fff"/>
    <path id="Path_1" data-name="Path 1" d="M29.809,0,25.492-4.57a17.766,17.766,0,0,1-2.069,1.993,13.317,13.317,0,0,1-2.5,1.612A13.94,13.94,0,0,1,17.888.114a15.818,15.818,0,0,1-3.644.394A17,17,0,0,1,8.8-.279,10.5,10.5,0,0,1,4.938-2.5a9.023,9.023,0,0,1-2.3-3.44,12.5,12.5,0,0,1-.762-4.469,11.232,11.232,0,0,1,.6-3.847,9.112,9.112,0,0,1,1.676-2.882,11.077,11.077,0,0,1,2.615-2.184,25.206,25.206,0,0,1,3.415-1.727q-.99-1.168-1.739-2.247A14.436,14.436,0,0,1,7.2-25.441a10.922,10.922,0,0,1-.749-2.184A10.75,10.75,0,0,1,6.2-30.012a8.343,8.343,0,0,1,.559-3.123,6.118,6.118,0,0,1,1.752-2.412,8.211,8.211,0,0,1,3.06-1.562,16,16,0,0,1,4.456-.546,13.5,13.5,0,0,1,4.24.584,7.8,7.8,0,0,1,2.856,1.6,5.983,5.983,0,0,1,1.6,2.361,8.17,8.17,0,0,1,.5,2.844,8.477,8.477,0,0,1-.482,2.971,6.893,6.893,0,0,1-1.536,2.387,12.685,12.685,0,0,1-2.717,2.069,35.539,35.539,0,0,1-4.05,1.993L25.9-10.816a22.593,22.593,0,0,0,.584-2.374q.229-1.206.368-2.361t.19-2.26q.051-1.1.051-2.044v-2.031h9.369V-19.7h-.482a14.125,14.125,0,0,0-1.7.1,4.648,4.648,0,0,0-1.562.47,4.042,4.042,0,0,0-1.295,1.066,5.117,5.117,0,0,0-.9,1.892q-.457,1.676-1.054,3.631a32.077,32.077,0,0,1-1.485,3.91L32.8-3.479a4.465,4.465,0,0,0,.787.635,3.627,3.627,0,0,0,.952.406,6.5,6.5,0,0,0,1.295.2q.749.051,1.815.051h.457V0ZM14.727-2.387A11.985,11.985,0,0,0,17.558-2.7a10.884,10.884,0,0,0,2.4-.876,10.462,10.462,0,0,0,2.006-1.333A12.432,12.432,0,0,0,23.613-6.6l-11.5-12.314a13.432,13.432,0,0,0-2.146,1.46A8.1,8.1,0,0,0,8.341-15.6a8.471,8.471,0,0,0-1.028,2.374,11.545,11.545,0,0,0-.355,3,9.376,9.376,0,0,0,.559,3.364A6.758,6.758,0,0,0,9.1-4.405a6.674,6.674,0,0,0,2.45,1.511A9.387,9.387,0,0,0,14.727-2.387Zm5.916-27.828a7,7,0,0,0-.254-1.93,3.909,3.909,0,0,0-.825-1.536,3.968,3.968,0,0,0-1.5-1.028,5.912,5.912,0,0,0-2.247-.381,4.6,4.6,0,0,0-3.555,1.346,5.065,5.065,0,0,0-1.244,3.58,8.078,8.078,0,0,0,.2,1.854A7.319,7.319,0,0,0,11.87-26.6,12.993,12.993,0,0,0,13-24.832q.686.914,1.676,2.006a17.913,17.913,0,0,0,2.653-1.4A8.409,8.409,0,0,0,19.2-25.835a5.89,5.89,0,0,0,1.092-1.942A7.7,7.7,0,0,0,20.643-30.215ZM122.52-6.348a13.494,13.494,0,0,0,2.564,3.123,4.375,4.375,0,0,0,2.895,1.041h.152V0h-.736a36.608,36.608,0,0,1-4-.178,8.607,8.607,0,0,1-2.653-.686,5.4,5.4,0,0,1-1.866-1.422,18.631,18.631,0,0,1-1.663-2.387L110.18-16.377h-4.316V-5.662a4.2,4.2,0,0,0,.343,1.841,2.464,2.464,0,0,0,.927,1.054,3.591,3.591,0,0,0,1.358.47,11.222,11.222,0,0,0,1.638.114h.686V0H95.682V-2.184h.66A11.222,11.222,0,0,0,97.98-2.3a3.591,3.591,0,0,0,1.358-.47,2.464,2.464,0,0,0,.927-1.054,4.2,4.2,0,0,0,.343-1.841V-31.408a4.2,4.2,0,0,0-.343-1.841,2.642,2.642,0,0,0-.927-1.079,3.347,3.347,0,0,0-1.358-.5,11.222,11.222,0,0,0-1.638-.114h-.66v-2.184h13.99q6.754,0,10.055,2.5t3.3,7.528a9.147,9.147,0,0,1-.673,3.644,9.06,9.06,0,0,1-1.765,2.7,10.323,10.323,0,0,1-2.463,1.9,16.2,16.2,0,0,1-2.742,1.219ZM105.864-18.814h3.656a12.2,12.2,0,0,0,3.809-.508,5.566,5.566,0,0,0,2.438-1.523,5.945,5.945,0,0,0,1.308-2.539,14.3,14.3,0,0,0,.394-3.555,12.622,12.622,0,0,0-.432-3.542,5.326,5.326,0,0,0-1.4-2.387,5.7,5.7,0,0,0-2.5-1.346,14.421,14.421,0,0,0-3.745-.419h-3.529Zm54.9,16.225h10.029a5.827,5.827,0,0,0,2.12-.343,4.192,4.192,0,0,0,1.46-.927,4.268,4.268,0,0,0,.914-1.358,6.611,6.611,0,0,0,.457-1.638L176.1-9.09h2.717L178.461,0H150.582V-2.184h.66a11.222,11.222,0,0,0,1.638-.114,3.591,3.591,0,0,0,1.358-.47,2.464,2.464,0,0,0,.927-1.054,4.2,4.2,0,0,0,.343-1.841V-31.205a4.841,4.841,0,0,0-.33-1.955,2.605,2.605,0,0,0-.914-1.13,3.374,3.374,0,0,0-1.358-.521,10.289,10.289,0,0,0-1.663-.127h-.66v-2.184h26.2l.254,9.09h-2.691l-.254-2.234A6.913,6.913,0,0,0,173.7-31.9a4.069,4.069,0,0,0-.838-1.358,3.885,3.885,0,0,0-1.371-.927,5.191,5.191,0,0,0-1.993-.343h-8.734v13.838h12.543v2.539H160.763Zm51.548-9.826-1.98,5.459a8.435,8.435,0,0,0-.355,1.206,5.05,5.05,0,0,0-.127,1.028,2.211,2.211,0,0,0,.851,1.93,4.49,4.49,0,0,0,2.6.609h1.193V0H201.8V-2.184h.99a4.421,4.421,0,0,0,1.295-.165,2.229,2.229,0,0,0,.965-.622,5.193,5.193,0,0,0,.825-1.244q.394-.787.876-2.031l11.527-30.875h4.063L234.1-4.951a8.494,8.494,0,0,0,.622,1.346,2.837,2.837,0,0,0,.749.851,2.637,2.637,0,0,0,.99.444,6.02,6.02,0,0,0,1.32.127h.686V0H224.169V-2.184h1.193q3.123,0,3.123-2.488a3.658,3.658,0,0,0-.114-.889q-.114-.457-.317-1.041l-2.082-5.814Zm9.5-11.705q-.813-2.311-1.485-4.329t-1.1-3.9q-.178.939-.419,1.815t-.521,1.79q-.279.914-.635,1.917t-.812,2.222L213.3-15.031h11.73ZM261.244,0V-2.184h.66a10.289,10.289,0,0,0,1.663-.127,3.374,3.374,0,0,0,1.358-.521,2.606,2.606,0,0,0,.914-1.13,4.841,4.841,0,0,0,.33-1.955V-31.205a4.841,4.841,0,0,0-.33-1.955,2.606,2.606,0,0,0-.914-1.13,3.374,3.374,0,0,0-1.358-.521,10.289,10.289,0,0,0-1.663-.127h-.66v-2.184h15.133v2.184h-.686a11.222,11.222,0,0,0-1.638.114,3.347,3.347,0,0,0-1.358.5,2.642,2.642,0,0,0-.927,1.079,4.2,4.2,0,0,0-.343,1.841V-2.59h10.258a4.361,4.361,0,0,0,1.993-.419A4.034,4.034,0,0,0,285.035-4.1a5.131,5.131,0,0,0,.825-1.511,8.014,8.014,0,0,0,.394-1.676l.508-3.885h2.717L289.123,0Zm84.175,0V-2.184h.178a9.073,9.073,0,0,0,1.511-.114,2.664,2.664,0,0,0,1.143-.457,2.332,2.332,0,0,0,.749-.99,5,5,0,0,0,.33-1.714V-33.236L337.421,0H334.6L322.542-33.135V-5.916a6.152,6.152,0,0,0,.254,1.955,2.4,2.4,0,0,0,.749,1.13,2.642,2.642,0,0,0,1.193.521,8.768,8.768,0,0,0,1.562.127h.152V0h-12.01V-2.184h.66A11.222,11.222,0,0,0,316.74-2.3a3.591,3.591,0,0,0,1.358-.47,2.464,2.464,0,0,0,.927-1.054,4.2,4.2,0,0,0,.343-1.841V-31.408a4.2,4.2,0,0,0-.343-1.841,2.642,2.642,0,0,0-.927-1.079,3.347,3.347,0,0,0-1.358-.5,11.222,11.222,0,0,0-1.638-.114h-.66v-2.184H326.3L337.066-7.389,347.73-37.121h11.527v2.184h-.66a10.289,10.289,0,0,0-1.663.127,3.374,3.374,0,0,0-1.358.521,2.606,2.606,0,0,0-.914,1.13,4.841,4.841,0,0,0-.33,1.955V-5.916a4.841,4.841,0,0,0,.33,1.955,2.606,2.606,0,0,0,.914,1.13,3.374,3.374,0,0,0,1.358.521,10.289,10.289,0,0,0,1.663.127h.66V0Z" transform="translate(1358 889)" fill="#fff"/>
    <path id="Path_2" data-name="Path 2" d="M19.957-34.684q-8.176-6.7-10.537-10.766a16.552,16.552,0,0,1-2.361-8.43,15.3,15.3,0,0,1,5.18-11.553q5.18-4.85,13.762-4.85,8.328,0,13.406,4.52t5.078,10.309a13.945,13.945,0,0,1-2.742,7.871Q39-43.57,30.316-38.137,39.254-31.23,42.148-27.27a17.99,17.99,0,0,1,3.859,10.918A16.362,16.362,0,0,1,40.473-3.936Q34.937,1.219,25.949,1.219q-9.8,0-15.285-6.145A15.9,15.9,0,0,1,6.3-15.691a15.943,15.943,0,0,1,3.072-9.064Q12.441-29.25,19.957-34.684Zm7.973-5.434q6.094-5.484,7.719-8.658a15.54,15.54,0,0,0,1.625-7.186q0-5.332-3-8.354A11,11,0,0,0,26.1-67.336a11.946,11.946,0,0,0-8.43,3,9.254,9.254,0,0,0-3.25,7.008,11.541,11.541,0,0,0,1.346,5.281A18.916,18.916,0,0,0,19.6-47.023Zm-5.586,7.363A23.806,23.806,0,0,0,16.1-25.01a20.5,20.5,0,0,0-2.031,9.064q0,6.551,3.58,10.486a11.779,11.779,0,0,0,9.115,3.936,12.317,12.317,0,0,0,8.785-3.1,9.926,9.926,0,0,0,3.3-7.516,11.541,11.541,0,0,0-1.93-6.551Q33.313-24.07,22.344-32.754Zm74.8-36.105-3.961,8.633H72.465l-4.52,9.242Q81.4-49,89.273-40.98a22.483,22.483,0,0,1,6.754,16.25,23.01,23.01,0,0,1-2.209,10.055A27.131,27.131,0,0,1,88.258-6.8a28.312,28.312,0,0,1-7.465,5.23A27.488,27.488,0,0,1,68.809,1.219q-6.2,0-9.014-2.107T56.977-5.535a3.352,3.352,0,0,1,1.168-2.514A4.144,4.144,0,0,1,61.09-9.141a6.058,6.058,0,0,1,2.311.406,21.441,21.441,0,0,1,3.377,2.082A13.435,13.435,0,0,0,74.5-4.012,14.316,14.316,0,0,0,84.932-8.506a14.893,14.893,0,0,0,4.494-10.943A19.182,19.182,0,0,0,85.414-31.1a25.745,25.745,0,0,0-11.07-8.354Q68.809-41.742,59.262-42.1l13.2-26.762Z" transform="translate(1154 909)" fill="#fff"/>
    <g id="Rectangle_2" data-name="Rectangle 2" transform="translate(1113 780)" fill="none" stroke="#fff" stroke-width="6">
      <rect width="188" height="188" stroke="none"/>
      <rect x="3" y="3" width="182" height="182" fill="none"/>
    </g>
  </g>
</svg>
